<?xml version="1.0" encoding="UTF-8" ?>
<svg version="1.1" width="64" height="64" xmlns="http://www.w3.org/2000/svg" shape-rendering="crispEdges">
<rect x="28" y="3" width="9" height="1" fill="#333333" />
<rect x="23" y="4" width="5" height="2" fill="#333333" />
<rect x="28" y="4" width="9" height="1" fill="#F2E6CF" />
<rect x="37" y="4" width="6" height="1" fill="#333333" />
<rect x="20" y="5" width="3" height="1" fill="#333333" />
<rect x="28" y="5" width="3" height="1" fill="#333333" />
<rect x="31" y="5" width="11" height="1" fill="#F2E6CF" />
<rect x="42" y="5" width="5" height="1" fill="#333333" />
<rect x="19" y="6" width="2" height="1" fill="#333333" />
<rect x="21" y="6" width="10" height="6" fill="#5BBCFF" />
<rect x="31" y="6" width="5" height="1" fill="#333333" />
<rect x="36" y="6" width="10" height="1" fill="#F2E6CF" />
<rect x="46" y="6" width="3" height="1" fill="#333333" />
<rect x="17" y="7" width="2" height="1" fill="#333333" />
<rect x="19" y="7" width="2" height="5" fill="#5BBCFF" />
<rect x="31" y="7" width="5" height="7" fill="#5BBCFF" />
<rect x="36" y="7" width="2" height="1" fill="#333333" />
<rect x="38" y="7" width="11" height="1" fill="#F2E6CF" />
<rect x="49" y="7" width="1" height="1" fill="#333333" />
<rect x="15" y="8" width="2" height="1" fill="#333333" />
<rect x="17" y="8" width="2" height="4" fill="#5BBCFF" />
<rect x="36" y="8" width="2" height="8" fill="#5BBCFF" />
<rect x="38" y="8" width="2" height="1" fill="#333333" />
<rect x="40" y="8" width="10" height="1" fill="#F2E6CF" />
<rect x="50" y="8" width="2" height="1" fill="#333333" />
<rect x="14" y="9" width="1" height="1" fill="#333333" />
<rect x="15" y="9" width="2" height="4" fill="#5BBCFF" />
<rect x="38" y="9" width="2" height="8" fill="#5BBCFF" />
<rect x="40" y="9" width="1" height="1" fill="#333333" />
<rect x="41" y="9" width="11" height="1" fill="#F2E6CF" />
<rect x="52" y="9" width="1" height="1" fill="#333333" />
<rect x="13" y="10" width="1" height="1" fill="#333333" />
<rect x="14" y="10" width="1" height="4" fill="#5BBCFF" />
<rect x="40" y="10" width="1" height="8" fill="#5BBCFF" />
<rect x="41" y="10" width="2" height="1" fill="#333333" />
<rect x="43" y="10" width="10" height="1" fill="#F2E6CF" />
<rect x="53" y="10" width="1" height="1" fill="#333333" />
<rect x="12" y="11" width="1" height="1" fill="#333333" />
<rect x="13" y="11" width="1" height="3" fill="#5BBCFF" />
<rect x="41" y="11" width="2" height="8" fill="#5BBCFF" />
<rect x="43" y="11" width="2" height="1" fill="#333333" />
<rect x="45" y="11" width="9" height="1" fill="#F2E6CF" />
<rect x="54" y="11" width="1" height="1" fill="#333333" />
<rect x="11" y="12" width="1" height="1" fill="#333333" />
<rect x="12" y="12" width="1" height="3" fill="#5BBCFF" />
<rect x="17" y="12" width="1" height="1" fill="#5BBCFF" />
<rect x="18" y="12" width="9" height="4" fill="#333333" />
<rect x="27" y="12" width="4" height="1" fill="#5BBCFF" />
<rect x="43" y="12" width="2" height="8" fill="#5BBCFF" />
<rect x="45" y="12" width="1" height="1" fill="#333333" />
<rect x="46" y="12" width="9" height="1" fill="#F2E6CF" />
<rect x="55" y="12" width="1" height="1" fill="#333333" />
<rect x="10" y="13" width="1" height="1" fill="#333333" />
<rect x="11" y="13" width="1" height="3" fill="#5BBCFF" />
<rect x="15" y="13" width="3" height="1" fill="#333333" />
<rect x="27" y="13" width="4" height="34" fill="#333333" />
<rect x="45" y="13" width="1" height="9" fill="#5BBCFF" />
<rect x="46" y="13" width="1" height="2" fill="#333333" />
<rect x="47" y="13" width="9" height="2" fill="#F2E6CF" />
<rect x="56" y="13" width="1" height="2" fill="#333333" />
<rect x="9" y="14" width="1" height="1" fill="#333333" />
<rect x="10" y="14" width="1" height="2" fill="#5BBCFF" />
<rect x="13" y="14" width="2" height="1" fill="#333333" />
<rect x="15" y="14" width="1" height="1" fill="#F2E6CF" />
<rect x="16" y="14" width="2" height="4" fill="#333333" />
<rect x="31" y="14" width="3" height="32" fill="#333333" />
<rect x="34" y="14" width="2" height="1" fill="#5BBCFF" />
<rect x="8" y="15" width="1" height="1" fill="#333333" />
<rect x="9" y="15" width="1" height="2" fill="#5BBCFF" />
<rect x="12" y="15" width="1" height="1" fill="#333333" />
<rect x="13" y="15" width="2" height="1" fill="#F2E6CF" />
<rect x="15" y="15" width="1" height="4" fill="#333333" />
<rect x="34" y="15" width="2" height="30" fill="#333333" />
<rect x="46" y="15" width="1" height="8" fill="#5BBCFF" />
<rect x="47" y="15" width="1" height="1" fill="#333333" />
<rect x="48" y="15" width="9" height="1" fill="#F2E6CF" />
<rect x="57" y="15" width="1" height="1" fill="#333333" />
<rect x="7" y="16" width="1" height="2" fill="#333333" />
<rect x="8" y="16" width="1" height="2" fill="#5BBCFF" />
<rect x="10" y="16" width="2" height="1" fill="#333333" />
<rect x="12" y="16" width="1" height="1" fill="#F2E6CF" />
<rect x="13" y="16" width="2" height="4" fill="#333333" />
<rect x="18" y="16" width="3" height="1" fill="#333333" />
<rect x="21" y="16" width="3" height="1" fill="#5BBCFF" />
<rect x="24" y="16" width="3" height="31" fill="#333333" />
<rect x="36" y="16" width="2" height="28" fill="#333333" />
<rect x="47" y="16" width="1" height="9" fill="#5BBCFF" />
<rect x="48" y="16" width="1" height="2" fill="#333333" />
<rect x="49" y="16" width="9" height="2" fill="#F2E6CF" />
<rect x="58" y="16" width="1" height="2" fill="#333333" />
<rect x="9" y="17" width="1" height="1" fill="#333333" />
<rect x="10" y="17" width="2" height="1" fill="#F2E6CF" />
<rect x="12" y="17" width="1" height="5" fill="#333333" />
<rect x="18" y="17" width="1" height="1" fill="#333333" />
<rect x="19" y="17" width="4" height="1" fill="#5BBCFF" />
<rect x="23" y="17" width="1" height="30" fill="#333333" />
<rect x="38" y="17" width="1" height="27" fill="#333333" />
<rect x="39" y="17" width="1" height="1" fill="#5BBCFF" />
<rect x="6" y="18" width="1" height="3" fill="#333333" />
<rect x="7" y="18" width="1" height="1" fill="#5BBCFF" />
<rect x="8" y="18" width="1" height="1" fill="#333333" />
<rect x="9" y="18" width="2" height="1" fill="#F2E6CF" />
<rect x="11" y="18" width="1" height="6" fill="#333333" />
<rect x="16" y="18" width="1" height="1" fill="#333333" />
<rect x="17" y="18" width="4" height="1" fill="#FFFFFF" />
<rect x="21" y="18" width="1" height="1" fill="#5BBCFF" />
<rect x="22" y="18" width="1" height="29" fill="#333333" />
<rect x="39" y="18" width="2" height="1" fill="#333333" />
<rect x="48" y="18" width="1" height="8" fill="#5BBCFF" />
<rect x="49" y="18" width="1" height="1" fill="#333333" />
<rect x="50" y="18" width="9" height="1" fill="#F2E6CF" />
<rect x="59" y="18" width="1" height="3" fill="#333333" />
<rect x="7" y="19" width="1" height="1" fill="#333333" />
<rect x="8" y="19" width="2" height="1" fill="#F2E6CF" />
<rect x="10" y="19" width="1" height="7" fill="#333333" />
<rect x="15" y="19" width="4" height="2" fill="#FFFFFF" />
<rect x="19" y="19" width="1" height="1" fill="#5BBCFF" />
<rect x="20" y="19" width="2" height="28" fill="#333333" />
<rect x="39" y="19" width="1" height="24" fill="#333333" />
<rect x="40" y="19" width="2" height="1" fill="#4D4E59" />
<rect x="42" y="19" width="1" height="1" fill="#333333" />
<rect x="49" y="19" width="1" height="9" fill="#5BBCFF" />
<rect x="50" y="19" width="1" height="2" fill="#333333" />
<rect x="51" y="19" width="8" height="2" fill="#F2E6CF" />
<rect x="5" y="20" width="1" height="3" fill="#333333" />
<rect x="7" y="20" width="2" height="1" fill="#F2E6CF" />
<rect x="9" y="20" width="1" height="8" fill="#333333" />
<rect x="13" y="20" width="1" height="1" fill="#333333" />
<rect x="14" y="20" width="1" height="5" fill="#FFFFFF" />
<rect x="19" y="20" width="1" height="28" fill="#333333" />
<rect x="40" y="20" width="1" height="22" fill="#333333" />
<rect x="41" y="20" width="2" height="1" fill="#4D4E59" />
<rect x="43" y="20" width="1" height="1" fill="#333333" />
<rect x="44" y="20" width="1" height="1" fill="#5BBCFF" />
<rect x="6" y="21" width="2" height="2" fill="#F2E6CF" />
<rect x="8" y="21" width="1" height="22" fill="#333333" />
<rect x="13" y="21" width="1" height="6" fill="#FFFFFF" />
<rect x="15" y="21" width="3" height="1" fill="#FFFFFF" />
<rect x="18" y="21" width="1" height="1" fill="#5BBCFF" />
<rect x="41" y="21" width="1" height="21" fill="#333333" />
<rect x="42" y="21" width="2" height="1" fill="#4D4E59" />
<rect x="44" y="21" width="1" height="1" fill="#333333" />
<rect x="50" y="21" width="1" height="5" fill="#5BBCFF" />
<rect x="51" y="21" width="1" height="2" fill="#333333" />
<rect x="52" y="21" width="8" height="2" fill="#F2E6CF" />
<rect x="60" y="21" width="1" height="5" fill="#333333" />
<rect x="12" y="22" width="1" height="7" fill="#FFFFFF" />
<rect x="15" y="22" width="2" height="1" fill="#FFFFFF" />
<rect x="17" y="22" width="1" height="1" fill="#5BBCFF" />
<rect x="18" y="22" width="1" height="25" fill="#333333" />
<rect x="42" y="22" width="1" height="19" fill="#333333" />
<rect x="43" y="22" width="2" height="1" fill="#4D4E59" />
<rect x="45" y="22" width="1" height="1" fill="#333333" />
<rect x="4" y="23" width="1" height="2" fill="#333333" />
<rect x="5" y="23" width="2" height="2" fill="#F2E6CF" />
<rect x="7" y="23" width="1" height="18" fill="#333333" />
<rect x="15" y="23" width="1" height="2" fill="#FFFFFF" />
<rect x="16" y="23" width="1" height="2" fill="#5BBCFF" />
<rect x="17" y="23" width="1" height="24" fill="#333333" />
<rect x="43" y="23" width="1" height="18" fill="#333333" />
<rect x="44" y="23" width="2" height="1" fill="#4D4E59" />
<rect x="46" y="23" width="1" height="2" fill="#333333" />
<rect x="51" y="23" width="1" height="2" fill="#5BBCFF" />
<rect x="52" y="23" width="1" height="3" fill="#333333" />
<rect x="53" y="23" width="2" height="1" fill="#F2E6CF" />
<rect x="55" y="23" width="2" height="1" fill="#333333" />
<rect x="57" y="23" width="3" height="1" fill="#F2E6CF" />
<rect x="11" y="24" width="1" height="6" fill="#FFFFFF" />
<rect x="44" y="24" width="1" height="16" fill="#333333" />
<rect x="45" y="24" width="1" height="1" fill="#4D4E59" />
<rect x="53" y="24" width="2" height="1" fill="#333333" />
<rect x="55" y="24" width="2" height="3" fill="#F2E6CF" />
<rect x="57" y="24" width="2" height="1" fill="#333333" />
<rect x="59" y="24" width="1" height="1" fill="#F2E6CF" />
<rect x="3" y="25" width="1" height="11" fill="#333333" />
<rect x="4" y="25" width="2" height="4" fill="#F2E6CF" />
<rect x="6" y="25" width="1" height="13" fill="#333333" />
<rect x="14" y="25" width="2" height="1" fill="#5BBCFF" />
<rect x="16" y="25" width="1" height="22" fill="#333333" />
<rect x="45" y="25" width="1" height="14" fill="#333333" />
<rect x="46" y="25" width="1" height="1" fill="#4D4E59" />
<rect x="47" y="25" width="1" height="1" fill="#333333" />
<rect x="51" y="25" width="1" height="1" fill="#333333" />
<rect x="53" y="25" width="2" height="5" fill="#F2E6CF" />
<rect x="57" y="25" width="2" height="2" fill="#F2E6CF" />
<rect x="59" y="25" width="1" height="1" fill="#333333" />
<rect x="61" y="25" width="1" height="11" fill="#333333" />
<rect x="10" y="26" width="1" height="5" fill="#FFFFFF" />
<rect x="14" y="26" width="1" height="2" fill="#5BBCFF" />
<rect x="15" y="26" width="1" height="21" fill="#333333" />
<rect x="46" y="26" width="1" height="12" fill="#333333" />
<rect x="47" y="26" width="1" height="2" fill="#4D4E59" />
<rect x="48" y="26" width="1" height="2" fill="#333333" />
<rect x="50" y="26" width="1" height="2" fill="#333333" />
<rect x="51" y="26" width="2" height="10" fill="#F2E6CF" />
<rect x="59" y="26" width="2" height="1" fill="#F2E6CF" />
<rect x="13" y="27" width="1" height="2" fill="#5BBCFF" />
<rect x="55" y="27" width="1" height="1" fill="#F2E6CF" />
<rect x="56" y="27" width="4" height="3" fill="#333333" />
<rect x="60" y="27" width="1" height="1" fill="#F2E6CF" />
<rect x="9" y="28" width="1" height="3" fill="#FFFFFF" />
<rect x="14" y="28" width="1" height="19" fill="#333333" />
<rect x="47" y="28" width="1" height="8" fill="#333333" />
<rect x="48" y="28" width="1" height="2" fill="#4D4E59" />
<rect x="49" y="28" width="1" height="2" fill="#333333" />
<rect x="50" y="28" width="1" height="7" fill="#F2E6CF" />
<rect x="55" y="28" width="1" height="6" fill="#333333" />
<rect x="60" y="28" width="1" height="6" fill="#333333" />
<rect x="4" y="29" width="1" height="7" fill="#F2E6CF" />
<rect x="5" y="29" width="1" height="5" fill="#333333" />
<rect x="12" y="29" width="1" height="1" fill="#5BBCFF" />
<rect x="13" y="29" width="1" height="17" fill="#333333" />
<rect x="11" y="30" width="1" height="1" fill="#5BBCFF" />
<rect x="12" y="30" width="1" height="16" fill="#333333" />
<rect x="48" y="30" width="1" height="4" fill="#333333" />
<rect x="49" y="30" width="1" height="3" fill="#F2E6CF" />
<rect x="53" y="30" width="1" height="7" fill="#F2E6CF" />
<rect x="54" y="30" width="1" height="2" fill="#333333" />
<rect x="56" y="30" width="1" height="5" fill="#333333" />
<rect x="57" y="30" width="2" height="2" fill="#F2E6CF" />
<rect x="59" y="30" width="1" height="5" fill="#333333" />
<rect x="9" y="31" width="2" height="1" fill="#5BBCFF" />
<rect x="11" y="31" width="1" height="14" fill="#333333" />
<rect x="9" y="32" width="2" height="12" fill="#333333" />
<rect x="54" y="32" width="1" height="5" fill="#F2E6CF" />
<rect x="57" y="32" width="2" height="3" fill="#333333" />
<rect x="49" y="33" width="1" height="2" fill="#333333" />
<rect x="5" y="34" width="1" height="7" fill="#F2E6CF" />
<rect x="48" y="34" width="1" height="3" fill="#4D4E59" />
<rect x="55" y="34" width="1" height="4" fill="#F2E6CF" />
<rect x="60" y="34" width="1" height="2" fill="#F2E6CF" />
<rect x="49" y="35" width="1" height="1" fill="#4D4E59" />
<rect x="50" y="35" width="1" height="1" fill="#333333" />
<rect x="56" y="35" width="4" height="1" fill="#F2E6CF" />
<rect x="4" y="36" width="1" height="5" fill="#333333" />
<rect x="47" y="36" width="1" height="2" fill="#4D4E59" />
<rect x="49" y="36" width="2" height="12" fill="#F2E6CF" />
<rect x="51" y="36" width="2" height="1" fill="#333333" />
<rect x="56" y="36" width="3" height="1" fill="#F2E6CF" />
<rect x="59" y="36" width="2" height="1" fill="#333333" />
<rect x="48" y="37" width="1" height="1" fill="#333333" />
<rect x="51" y="37" width="2" height="10" fill="#F2E6CF" />
<rect x="53" y="37" width="2" height="1" fill="#333333" />
<rect x="56" y="37" width="1" height="1" fill="#F2E6CF" />
<rect x="57" y="37" width="2" height="1" fill="#333333" />
<rect x="59" y="37" width="1" height="3" fill="#F2E6CF" />
<rect x="60" y="37" width="1" height="3" fill="#333333" />
<rect x="6" y="38" width="1" height="6" fill="#F2E6CF" />
<rect x="46" y="38" width="1" height="1" fill="#4D4E59" />
<rect x="47" y="38" width="1" height="1" fill="#333333" />
<rect x="48" y="38" width="1" height="11" fill="#F2E6CF" />
<rect x="53" y="38" width="2" height="8" fill="#F2E6CF" />
<rect x="55" y="38" width="2" height="1" fill="#333333" />
<rect x="57" y="38" width="2" height="5" fill="#F2E6CF" />
<rect x="45" y="39" width="1" height="1" fill="#4D4E59" />
<rect x="46" y="39" width="1" height="1" fill="#333333" />
<rect x="47" y="39" width="1" height="10" fill="#F2E6CF" />
<rect x="55" y="39" width="2" height="6" fill="#F2E6CF" />
<rect x="44" y="40" width="1" height="1" fill="#4D4E59" />
<rect x="45" y="40" width="1" height="1" fill="#333333" />
<rect x="46" y="40" width="1" height="9" fill="#F2E6CF" />
<rect x="59" y="40" width="1" height="3" fill="#333333" />
<rect x="5" y="41" width="1" height="3" fill="#333333" />
<rect x="7" y="41" width="1" height="4" fill="#F2E6CF" />
<rect x="42" y="41" width="2" height="1" fill="#4D4E59" />
<rect x="44" y="41" width="1" height="1" fill="#333333" />
<rect x="45" y="41" width="1" height="8" fill="#F2E6CF" />
<rect x="40" y="42" width="2" height="1" fill="#4D4E59" />
<rect x="42" y="42" width="2" height="1" fill="#333333" />
<rect x="44" y="42" width="1" height="8" fill="#F2E6CF" />
<rect x="8" y="43" width="1" height="3" fill="#F2E6CF" />
<rect x="39" y="43" width="1" height="1" fill="#4D4E59" />
<rect x="40" y="43" width="2" height="1" fill="#333333" />
<rect x="42" y="43" width="2" height="7" fill="#F2E6CF" />
<rect x="57" y="43" width="1" height="1" fill="#F2E6CF" />
<rect x="58" y="43" width="1" height="2" fill="#333333" />
<rect x="6" y="44" width="1" height="2" fill="#333333" />
<rect x="9" y="44" width="1" height="3" fill="#F2E6CF" />
<rect x="10" y="44" width="1" height="1" fill="#333333" />
<rect x="36" y="44" width="1" height="1" fill="#333333" />
<rect x="37" y="44" width="2" height="1" fill="#4D4E59" />
<rect x="39" y="44" width="1" height="1" fill="#333333" />
<rect x="40" y="44" width="2" height="7" fill="#F2E6CF" />
<rect x="57" y="44" width="1" height="1" fill="#333333" />
<rect x="7" y="45" width="1" height="1" fill="#333333" />
<rect x="10" y="45" width="2" height="2" fill="#F2E6CF" />
<rect x="34" y="45" width="3" height="1" fill="#4D4E59" />
<rect x="37" y="45" width="2" height="1" fill="#333333" />
<rect x="39" y="45" width="1" height="6" fill="#F2E6CF" />
<rect x="55" y="45" width="2" height="1" fill="#333333" />
<rect x="57" y="45" width="2" height="7" fill="#F2E6CF" />
<rect x="59" y="45" width="1" height="2" fill="#333333" />
<rect x="5" y="46" width="1" height="2" fill="#333333" />
<rect x="6" y="46" width="2" height="7" fill="#F2E6CF" />
<rect x="8" y="46" width="1" height="1" fill="#333333" />
<rect x="12" y="46" width="2" height="2" fill="#F2E6CF" />
<rect x="31" y="46" width="4" height="1" fill="#4D4E59" />
<rect x="35" y="46" width="2" height="1" fill="#333333" />
<rect x="37" y="46" width="2" height="5" fill="#F2E6CF" />
<rect x="53" y="46" width="2" height="1" fill="#333333" />
<rect x="55" y="46" width="2" height="8" fill="#F2E6CF" />
<rect x="8" y="47" width="1" height="8" fill="#F2E6CF" />
<rect x="9" y="47" width="2" height="1" fill="#333333" />
<rect x="11" y="47" width="1" height="1" fill="#F2E6CF" />
<rect x="14" y="47" width="5" height="2" fill="#F2E6CF" />
<rect x="20" y="47" width="1" height="1" fill="#333333" />
<rect x="21" y="47" width="10" height="1" fill="#4D4E59" />
<rect x="31" y="47" width="4" height="1" fill="#333333" />
<rect x="35" y="47" width="2" height="5" fill="#F2E6CF" />
<rect x="51" y="47" width="2" height="1" fill="#333333" />
<rect x="53" y="47" width="2" height="8" fill="#F2E6CF" />
<rect x="59" y="47" width="1" height="3" fill="#F2E6CF" />
<rect x="60" y="47" width="1" height="3" fill="#333333" />
<rect x="4" y="48" width="1" height="3" fill="#333333" />
<rect x="5" y="48" width="1" height="3" fill="#F2E6CF" />
<rect x="9" y="48" width="2" height="7" fill="#F2E6CF" />
<rect x="11" y="48" width="2" height="1" fill="#333333" />
<rect x="13" y="48" width="1" height="1" fill="#F2E6CF" />
<rect x="19" y="48" width="3" height="2" fill="#F2E6CF" />
<rect x="22" y="48" width="9" height="1" fill="#333333" />
<rect x="31" y="48" width="4" height="4" fill="#F2E6CF" />
<rect x="49" y="48" width="2" height="1" fill="#333333" />
<rect x="51" y="48" width="2" height="8" fill="#F2E6CF" />
<rect x="11" y="49" width="2" height="7" fill="#F2E6CF" />
<rect x="13" y="49" width="3" height="1" fill="#333333" />
<rect x="16" y="49" width="3" height="1" fill="#F2E6CF" />
<rect x="22" y="49" width="9" height="2" fill="#F2E6CF" />
<rect x="45" y="49" width="4" height="1" fill="#333333" />
<rect x="49" y="49" width="2" height="8" fill="#F2E6CF" />
<rect x="13" y="50" width="3" height="7" fill="#F2E6CF" />
<rect x="16" y="50" width="4" height="1" fill="#333333" />
<rect x="20" y="50" width="2" height="1" fill="#F2E6CF" />
<rect x="42" y="50" width="3" height="1" fill="#333333" />
<rect x="45" y="50" width="4" height="7" fill="#F2E6CF" />
<rect x="59" y="50" width="1" height="2" fill="#333333" />
<rect x="5" y="51" width="1" height="2" fill="#333333" />
<rect x="16" y="51" width="4" height="7" fill="#F2E6CF" />
<rect x="20" y="51" width="5" height="1" fill="#333333" />
<rect x="25" y="51" width="6" height="1" fill="#F2E6CF" />
<rect x="37" y="51" width="1" height="1" fill="#F2E6CF" />
<rect x="38" y="51" width="4" height="1" fill="#333333" />
<rect x="42" y="51" width="3" height="7" fill="#F2E6CF" />
<rect x="20" y="52" width="4" height="7" fill="#F2E6CF" />
<rect x="24" y="52" width="14" height="1" fill="#333333" />
<rect x="38" y="52" width="4" height="7" fill="#F2E6CF" />
<rect x="57" y="52" width="1" height="1" fill="#F2E6CF" />
<rect x="58" y="52" width="1" height="1" fill="#333333" />
<rect x="6" y="53" width="1" height="1" fill="#333333" />
<rect x="7" y="53" width="1" height="1" fill="#F2E6CF" />
<rect x="24" y="53" width="14" height="6" fill="#F2E6CF" />
<rect x="57" y="53" width="1" height="1" fill="#333333" />
<rect x="7" y="54" width="1" height="1" fill="#333333" />
<rect x="55" y="54" width="2" height="1" fill="#333333" />
<rect x="8" y="55" width="2" height="1" fill="#333333" />
<rect x="10" y="55" width="1" height="1" fill="#F2E6CF" />
<rect x="53" y="55" width="2" height="1" fill="#333333" />
<rect x="10" y="56" width="2" height="1" fill="#333333" />
<rect x="12" y="56" width="1" height="1" fill="#F2E6CF" />
<rect x="51" y="56" width="2" height="1" fill="#333333" />
<rect x="12" y="57" width="3" height="1" fill="#333333" />
<rect x="15" y="57" width="1" height="1" fill="#F2E6CF" />
<rect x="45" y="57" width="3" height="1" fill="#F2E6CF" />
<rect x="48" y="57" width="3" height="1" fill="#333333" />
<rect x="15" y="58" width="4" height="1" fill="#333333" />
<rect x="19" y="58" width="1" height="1" fill="#F2E6CF" />
<rect x="42" y="58" width="1" height="1" fill="#F2E6CF" />
<rect x="43" y="58" width="5" height="1" fill="#333333" />
<rect x="19" y="59" width="7" height="1" fill="#333333" />
<rect x="26" y="59" width="10" height="1" fill="#F2E6CF" />
<rect x="36" y="59" width="7" height="1" fill="#333333" />
<rect x="26" y="60" width="10" height="1" fill="#333333" />
</svg>